<svg xmlns="http://www.w3.org/2000/svg" width="256" height="256"><path fill-opacity=".016" d="M0 128.004v128.004l128.25-.254 128.25-.254.254-127.75L257.008 0H0v128.004m.485.496c0 70.4.119 99.053.265 63.672.146-35.38.146-92.98 0-128C.604 29.153.485 58.1.485 128.5" fill="#1976D2" fill-rule="evenodd"/><path fill-opacity=".362" d="M106.5 1.588C88.678 4.725 71.202 11.689 56.342 21.576 48.707 26.657 36.988 37.346 26.278 49c-2.275 2.475-5.057 5.276-6.182 6.225-1.125.948-2.313 2.973-2.64 4.5-.328 1.526-2.335 6.6-4.462 11.275C3.557 91.748 1.025 102.013.287 122.519c-.652 18.112 1.059 30.785 6.252 46.302 6.777 20.254 16.197 35.227 31.929 50.753 24.074 23.759 55.214 36.41 89.651 36.422 28.364.01 55.424-9.239 78.185-26.721 24.735-19 43.193-49.424 47.79-78.775.689-4.4 1.625-8.428 2.08-8.95.454-.522.794-7.497.756-15.5-.039-8.003-.419-13.658-.845-12.568-.559 1.433-.965.294-1.463-4.104-1.145-10.123-5.431-24.29-10.667-35.257C241.23 68.413 239 62.878 239 61.822c0-2.969-2.761-7.611-4.937-8.302-1.078-.342-4.9-4.106-8.494-8.365-19.268-22.834-46.667-38.428-76.495-43.54-11.475-1.966-31.486-1.979-42.574-.027m46.213 62.796c-14.681 4.065-21.948 20.907-14.963 34.68 11.041 21.77 43.453 15.747 45.96-8.54.512-4.959.388-5.499-1.125-4.918-.935.359-1.484 1.214-1.221 1.901.264.687-.025 1.754-.642 2.371-.829.829-.687 1.122.547 1.122 1.063 0 1.462.538 1.1 1.482-.444 1.157-1.011 1.245-2.59.4-1.463-.783-1.833-.778-1.341.018.453.732-.698 1.1-3.438 1.1-2.265 0-3.909-.338-3.655-.75.255-.412-.575-.75-1.845-.75s-2.145.265-1.945.589c.201.325-1.305.65-3.345.723-2.708.097-3.305-.126-2.21-.824.898-.573 1.022-.964.309-.973-.655-.008-1.469.435-1.809.985-.34.55-2.291 1-4.335 1h-3.718l.281-4.25c.231-3.49.107-3.847-.692-1.999-.535 1.238-.714 2.926-.397 3.75.316.825.077 1.499-.532 1.499s-1.121-.562-1.137-1.25c-.017-.694-.484-.471-1.05.5-.664 1.141-2.241 1.75-4.529 1.75-2.297 0-3.274-.38-2.829-1.1.493-.797.113-.797-1.381.003-1.327.71-2.276.752-2.667.119-.937-1.515-.261-10.022.795-10.022.515 0 .392-.655-.273-1.456-1.276-1.538-.636-3.544 1.13-3.544.576 0 .794.661.485 1.468-.31.807-.166 1.714.321 2.014.486.301 1.198-.444 1.583-1.654.674-2.125.747-2.136 2.072-.324 1.338 1.83 1.375 1.828 1.452-.063.043-1.067.297-1.404.565-.747.267.656 1.074.968 1.793.692.932-.358 1.169.223.826 2.019-.265 1.387-.99 2.426-1.612 2.308-.693-.131-.999.946-.793 2.787.428 3.817 1.142 4.623 1.142 1.289 0-3.449 1.647-4.589 10.647-7.366l7.7-2.375 8.966 3.003c4.931 1.652 9.087 2.879 9.237 2.727.149-.153-.33-2.021-1.064-4.151-4.087-11.857-17.394-18.67-29.773-15.243M85.03 68.113C77.023 71.308 72 79.195 72 88.572c0 6.826 1.285 6.793 4.909-.125 2.638-5.037 8.65-11.221 9.795-10.076.347.347.15 2.197-.437 4.112-1.03 3.356-.993 3.441 1.034 2.356 1.583-.848 2.201-.833 2.498.059.303.909.735.904 1.849-.021 1.186-.984 1.561-.793 2.041 1.043.428 1.634.808 1.894 1.392.949.442-.715 2.444-1.405 4.449-1.533 2.829-.181 3.52.091 3.089 1.215-.843 2.196 1.159 1.733 2.381-.551 1.221-2.281 4-2.702 4-.607 0 .766-.739 1.677-1.643 2.024-.904.346-1.368.905-1.031 1.242.336.337 1.863-.153 3.393-1.087l2.781-1.699-2.851 2.602c-2.096 1.914-3.187 2.323-4.123 1.547-.7-.581-2.005-.776-2.899-.432-1.131.434-1.627.076-1.627-1.174 0-1.613-.129-1.635-1.25-.222-.687.867-1.925 1.786-2.75 2.042-.825.256 1.662 1.007 5.526 1.668 3.864.66 7.689 1.627 8.5 2.147.976.626.291.693-2.026.198-1.925-.412-9.49-.729-16.811-.705-7.32.025-12.439-.277-11.373-.672 1.438-.531 1.81-1.38 1.444-3.294C81.989 88.16 81.466 87 81.099 87c-1.271 0-4.212 6.009-3.502 7.157.413.668.275.882-.329.509-.573-.354-1.58.005-2.239.799-1.662 2.002 1.26 6.77 6.281 10.25 4.526 3.136 13.369 4.206 19.109 2.312 17.344-5.724 18.855-30.671 2.371-39.124-4.062-2.083-13.472-2.502-17.76-.79m16.653 7.481c-2.155 1.178-3.143 1.269-4.206.387C96.013 74.766 94 75.424 94 77.118c0 .55.518.68 1.152.288.633-.391 1.706.048 2.385.975 1.146 1.567 1.49 1.536 4.848-.446 3.764-2.221 4.468-1.566 2.559 2.381-.969 2.003-.883 1.984 1.042-.229 3.926-4.514 1.112-7.453-4.303-4.493m54.982 6.378c-3.209 1.025-6.033 2.063-6.277 2.307-.243.243 2.72.39 6.585.326l7.027-.116v3.256c0 2.13.486 3.255 1.406 3.255.846 0 1.226-.698.952-1.75-.249-.963.194-2.633.986-3.712 1.187-1.618 1.706-1.741 2.959-.702 1.173.974 1.688.988 2.261.061.536-.868 1.115-.689 2.089.643 1.181 1.616 1.347 1.638 1.347.183 0-1.149.539-1.471 1.75-1.044 1.177.414 1.423.284.75-.399-1.446-1.467-10.414-4.289-13.428-4.226-1.415.029-5.198.892-8.407 1.918m-15.378 1.85c-.805.498-.756 1.184.176 2.458 1.218 1.666 1.322 1.652 1.82-.256.591-2.26-.303-3.247-1.996-2.202m14.38 2.845c-1.222 1.221-.711 6.333.632 6.333.896 0 1.173-1.086.891-3.5-.437-3.742-.499-3.857-1.523-2.833m3.528 1.833c.02 1.65.244 2.204.498 1.231.254-.973.237-2.323-.037-3-.274-.677-.481.119-.461 1.769m9.489-1.75c-.238.412-.072 1.65.371 2.75.702 1.746.813 1.651.875-.75.069-2.713-.399-3.464-1.246-2m-83.442 3.216c-1.1 1.777-1.015 2.034.668 2.034 2.784 0 5.09-1.045 5.09-2.307 0-.731-.397-.696-1.2.107-1.619 1.619-2.588 1.51-2.977-.334-.257-1.222-.578-1.12-1.581.5M148 95.418c0 .78-.273 2.13-.607 3-.458 1.193.034 1.582 2 1.582 2.386 0 3.025-.746 2.357-2.75-.137-.412-.664-.612-1.169-.444-.506.169-.338-.394.372-1.25 1.1-1.325.977-1.556-.831-1.556-1.167 0-2.122.638-2.122 1.418m15.25-.62c-3.437.163-6.25.712-6.25 1.218 0 .507-.675.662-1.5.346-.961-.369-1.5.019-1.5 1.08 0 1.402.986 1.609 6.41 1.348 3.526-.169 6.179.066 5.897.522-.282.457.996.686 2.84.509 2.404-.23 3.353-.816 3.353-2.071 0-.963-.4-1.712-.888-1.665-.489.047-1.164-.29-1.5-.75-.337-.459-3.424-.701-6.862-.537m-118.613 14.61C36.576 112.401 32 119.139 32 128.018c0 24.488 37.15 25.591 38.757 1.151.929-14.131-12.967-24.645-26.12-19.761m148.768.441c-2.327 1.088-5.026 3.42-6.25 5.401-2.88 4.659-2.934 12.753-.117 17.311 2.188 3.541 9.035 7.439 13.066 7.439 3.581 0 10.946-4.044 13.337-7.323 2.885-3.957 2.884-13.426-.003-17.292-5.151-6.9-12.673-8.978-20.033-5.536M.4 127.5c.001 8.25.156 11.492.344 7.204.188-4.287.187-11.037-.002-15-.19-3.962-.343-.454-.342 7.796m195.888-11.373c-3.002 2.105-4.382 3.877-4.803 6.164-.606 3.297-.08 9.938.915 11.548.308.497 4.049.85 8.313.783l7.754-.122.731-4c1.134-6.208.012-11.447-2.718-12.691-1.277-.582-2.102-1.631-1.833-2.332.269-.701.014-1.569-.567-1.928-.643-.397-.824-.045-.462.899.423 1.1-.018 1.552-1.511 1.552-1.159 0-2.107-.477-2.107-1.059s.52-.738 1.155-.346c.715.443.883.275.44-.44-.392-.635-.799-1.116-.904-1.069-.105.048-2.087 1.416-4.403 3.041M38 120.653c0 .895-.486 1.181-1.25.734-.687-.402-.402.236.634 1.418 1.036 1.181 2.273 1.907 2.75 1.612 1.31-.809 1.038 3.011-.31 4.359-.902.902-.749 1.649.655 3.2 1.007 1.113 1.327 2.024.711 2.024-1.698 0-3.147-3.376-2.613-6.088.474-2.405.472-2.406-.688-.196-1.587 3.022 1.236 7.549 4.424 7.095 2.617-.372 3.473-4.113 1.514-6.616-1.193-1.524-1.151-1.557.423-.323 2.003 1.571 2.378.205.5-1.819-1-1.077-1-1.205 0-.641.688.388 1.25.238 1.25-.334 0-.572-1.152-1.329-2.56-1.682-1.514-.38-2.359-1.165-2.069-1.921.27-.703-.378-1.505-1.44-1.783-1.259-.329-1.931.005-1.931.961m11.25 3.053c-1.237.238-2.277.739-2.309 1.114-.032.374-.192 2.434-.355 4.577l-.296 3.897 1.403-2.677c1.6-3.054 3.4-2.69 2.561.518-.537 2.056-.345 2.107 5.309 1.4 7.288-.91 9.581-1.345 10.164-1.928.831-.832-.854-4.647-1.795-4.065-1.631 1.008-5.004 1.383-4.455.496.291-.472.255-1.573-.081-2.448-.602-1.569-4.726-1.928-10.146-.884M62 133l-2.5.801 2.75.099c1.513.055 2.75-.35 2.75-.9s-.112-.955-.25-.9c-.138.055-1.375.46-2.75.9m-7.75.706c-3.618.697-2.585 1.932 1.242 1.485 1.921-.224 3.244-.809 2.941-1.299-.303-.491-.862-.831-1.242-.756-.38.075-1.704.331-2.941.57m-7.5 1.956c.688.278 1.813.278 2.5 0 .688-.277.125-.504-1.25-.504s-1.937.227-1.25.504m131.594 16.379c-6.838 1.353-14.168 4.995-17.351 8.62-11.902 13.555 14.796 26.692 42.371 20.85 25.136-5.326 24.862-23.003-.451-28.97-6.862-1.617-17.795-1.84-24.569-.5m-106.343 2.031c-11.802 4.948-11.41 21.998.597 25.96 12.805 4.226 23.563-10.93 15.255-21.492l-2.094-2.662-2.268 2.13c-1.477 1.388-2.081 2.843-1.733 4.175.462 1.765.207 1.945-1.862 1.318-1.318-.399-2.846-1.176-3.396-1.726-.667-.666-.208-.76 1.375-.28 1.704.516 2.169.385 1.645-.462-.411-.665.265-2.239 1.546-3.603 1.251-1.332 2.011-2.687 1.687-3.01-1.148-1.149-8.292-1.379-10.752-.348m-1.827 5.242c-3.992 4.25-1.867 10.847 3.935 12.216 3.45.814 9.323-3.871 6.891-5.497-2.186-1.461-3.299-1.254-2.629.49.479 1.249.222 1.33-1.425.448-1.105-.592-1.883-1.702-1.728-2.468.155-.765-.618-2.125-1.718-3.022-1.98-1.613-1.978-1.625.213-1.158 2.232.474 4.832-1.444 3.612-2.665-1.403-1.403-5.076-.552-7.151 1.656m105.138 3.121c.185.557-.255 2.149-.978 3.539l-1.315 2.526 6.651.299c4.64.209 6.9-.093 7.475-1 .521-.821.83-.882.84-.164.019 1.45 8.009 1.376 8.03-.074.009-.584.459-.386 1 .439.876 1.333 1.094 1.333 1.97 0 .658-1.003.989-1.086 1-.25.017 1.42 2.143 1.257 3.25-.25.454-.619.74-.521.75.255.022 1.799 11.716 1.467 12.414-.352.739-1.925-.204-2.216-6.649-2.05-3.163.081-5.75-.191-5.75-.603s-.45-.75-1-.75-1.007.787-1.015 1.75c-.012 1.386-.198 1.463-.89.37-.555-.877-2.006-1.213-3.984-.923-1.711.251-3.111.015-3.111-.525s-.9-.167-2 .828-2 1.332-2 .749c0-.636-2.415-1.042-6.029-1.014-4.449.034-6.276.468-6.97 1.656-.517.885-.954 1.115-.971.512-.016-.603.87-2.135 1.97-3.403 1.1-1.268 2-1.829 2-1.245 0 .65 2.302.985 5.953.866 6.156-.201 9.621-1.54 4.464-1.726-12.954-.467-15.412-.379-15.105.54m-11.944 1.049c-1.116 2.908-.87 7.803.407 8.084.701.155.814.053.25-.226-1.111-.551-1.432-3.342-.385-3.342.352 0 1.252.787 2 1.75 1.288 1.658 1.438 1.649 2.85-.177.819-1.06 1.783-1.633 2.142-1.274s.075 1.349-.631 2.2c-1.081 1.303-1.025 1.447.358.917.902-.347 1.641-1.201 1.641-1.898 0-.697.281-2.674.625-4.393l.625-3.125h-4.656c-3.194 0-4.836.466-5.226 1.484M71 164.642c0 2.412 2.278 4.684 4.202 4.191.869-.223.389-1.32-1.452-3.318-2.524-2.739-2.75-2.811-2.75-.873m93-.642c0 .55.45 1 1 1s1-.45 1-1-.45-1-1-1-1 .45-1 1m6 0c0 .55.45 1 1 1s1-.45 1-1-.45-1-1-1-1 .45-1 1m24.25 6.735c2.613.206 6.887.206 9.5 0 2.613-.206.475-.375-4.75-.375s-7.363.169-4.75.375M67.345 173.25c-.799 1.294.653 2.688 2.187 2.099.844-.323 1.475.014 1.483.794.01.87.279.978.75.302.404-.581 1.827-1.043 3.161-1.028 1.334.015 2.594-.478 2.8-1.095.423-1.268-9.619-2.305-10.381-1.072m124.769-.803c.876.876 10.886 1.255 10.886.412 0-.473-2.55-.859-5.667-.859-3.116 0-5.465.201-5.219.447m16.386.574c2.246.444 4.417.394 4.95-.115.573-.547-1.014-.86-4-.791l-4.95.115 4 .791M79 174.196c0 .442.563.849 1.25.903.688.055 2.487.21 4 .346 1.796.161 2.75-.235 2.75-1.14 0-.99-1.144-1.319-4-1.15-2.2.13-4 .598-4 1.041" fill="#1976D2" fill-rule="evenodd"/><path fill-opacity=".613" d="M113.519 1.04c-18.14 2.059-38.092 9.098-54.167 19.109-8.821 5.494-26.513 21.444-31.852 28.717-1.65 2.248-3.484 4.097-4.076 4.11-1.856.041-5.424 4.553-5.424 6.861 0 1.214-1.816 5.819-4.035 10.232C4.659 88.579.717 105.439.656 127c-.065 22.707 3.332 37.732 13.232 58.522 5.965 12.528 14.588 23.89 27.147 35.766 38.593 36.497 96.171 44.77 143.965 20.686 30.886-15.565 53.045-41.093 64.139-73.892 3.279-9.692 5.861-22.334 5.861-28.692 0-2.415.45-4.39 1-4.39.599 0 .953-3.504.882-8.75-.084-6.167-.344-7.865-.882-5.75-.648 2.545-.781 2.19-.882-2.343-.281-12.695-5.859-32.652-13.244-47.385-2.131-4.25-3.874-9.009-3.874-10.575 0-2.795-3.482-7.197-5.693-7.197-.585 0-2.992-2.499-5.348-5.553-16.602-21.52-46.666-39.52-74.974-44.89C141.856.635 123.472-.089 113.519 1.04m-5.894 20.514c-10.333 2.053-19.076 5.166-29.697 10.575-9.03 4.598-25.777 16.919-26.681 19.629-.312.936 2.146 1.242 9.974 1.242 9.949 0 10.596-.133 15.333-3.161 16.402-10.482 32.542-15.207 51.946-15.207 19.404 0 35.544 4.725 51.946 15.207 4.689 2.997 5.455 3.161 14.75 3.161 5.392 0 9.804-.364 9.804-.809 0-1.169-9.503-9.179-16.5-13.908-12.291-8.307-26.108-13.993-40.75-16.771-9.81-1.861-30.658-1.839-40.125.042M41 63.878c0 .482.626 1.397 1.391 2.032s1.686 3.116 2.045 5.514c.534 3.558 1.094 4.444 3.048 4.818 1.902.363 3.006-.383 5.386-3.642 1.645-2.255 4.166-5.337 5.602-6.85L61.081 63H51.04c-5.522 0-10.04.395-10.04.878m109.353.75c-5.004 1.774-10.58 6.981-13.574 12.678-3.382 6.433-3.117 15.622.646 22.448 8.103 14.695 26.131 17.744 38.605 6.529 11.231-10.098 11.231-26.468 0-36.566-7.336-6.596-16.374-8.387-25.677-5.089m47.379.372c1.471 1.718 2.95 2 10.49 2 4.828 0 8.778-.36 8.778-.8 0-2.385-2.976-3.2-11.69-3.2-9.195 0-9.273.021-7.578 2m-159.99 2.86c-1.966 3.328-1.484 4.14 2.46 4.14 2.613 0 2.767-.189 1.733-2.121-.797-1.49-.808-1.918-.035-1.441 1.478.914 1.404-.734-.1-2.238-1.721-1.721-2.17-1.537-4.058 1.66m47.758-.424c-5.714 2.08-12.003 9.325-13.496 15.546-3.51 14.633 9.47 28.824 24.328 26.595 11.057-1.658 19.379-11.994 18.471-22.944-1.209-14.578-15.777-24.122-29.303-19.197m109.5.256c1.375.28 2.872 1.027 3.326 1.659.552.768.693.652.423-.351-.227-.846-1.677-1.569-3.326-1.659-2.517-.136-2.576-.088-.423.351M201.421 71l1.158 6c.571 2.953.677 3 6.862 3 6.233 0 6.278-.02 5.783-2.611-.434-2.269-.23-2.526 1.558-1.958 2.078.659 2.109.614 3.865-5.681.441-1.584-.476-1.75-9.659-1.75h-10.147l.58 3M33.874 74.236c-.598 1.117-.592 1.764.017 1.764.53 0 1.168-.787 1.42-1.75.435-1.667.463-1.667.573 0C35.974 75.606 36.901 76 40 76c5.923 0 5.421-2.686-.591-3.164-3.608-.287-4.793.013-5.535 1.4M199.158 74c0 1.375.227 1.938.504 1.25.278-.687.278-1.812 0-2.5-.277-.687-.504-.125-.504 1.25m21.471.525c-.383.998-.338 2.076.1 2.395.992.723 1.314 6.08.365 6.08-.382 0-1.122-.369-1.644-.82-.522-.452-2.525-.252-4.45.443l-3.5 1.264 3.098.057c2.727.049 3.108.407 3.181 2.991.046 1.614-.511 3.428-1.238 4.031-1.082.898-.909 2.315.96 7.838 3.517 10.397 4.842 20.833 4.248 33.457-.414 8.779-2.9 23.71-4.246 25.504-.109.145-2.18-.825-4.601-2.155-6.708-3.687-14.246-4.935-26.706-4.422-10.107.417-11.611.743-17.866 3.883-12.127 6.088-14.232 12.921-6.216 20.178 5.793 5.245 14.683 7.888 26.886 7.995 5.225.045 11.023-.265 12.884-.69l3.384-.772-2.783 3.649-2.783 3.648 9.294-.29 9.294-.289 4.841-9 4.841-9-.035-42.5-.034-42.5-3.289-6.395c-2.583-5.022-3.438-6.005-3.985-4.58M102.75 75.574c-1.513.82-2.75 1.936-2.75 2.481 0 .545 1.122.256 2.492-.642 1.371-.898 3.209-1.358 4.084-1.022.981.376 1.439.155 1.195-.578-.603-1.81-1.998-1.876-5.021-.239m-5.186 1.719c.376.986.935 1.541 1.243 1.233.308-.307.001-1.114-.683-1.793-.988-.98-1.102-.865-.56.56m-65.957 1.289c-.334.87-.639 3.007-.677 4.75-.056 2.497-.23 2.76-.825 1.241-.701-1.788-.804-1.8-1.43-.168-.371.967-.665 20.734-.653 43.927l.021 42.168 4.763 9 4.764 9 9.792.287 9.792.287-4.46-6.287c-2.453-3.458-6.085-9.532-8.071-13.499C41.02 162.091 36 146.619 36 142.714v-2.063l2.264 2.127c8.076 7.587 21.226 6.517 28.511-2.321 7.526-9.131 5.628-22.441-4.169-29.23-3.389-2.349-4.927-2.727-11.094-2.727-6.144 0-7.75.392-11.335 2.764-4.977 3.294-5.049 2.973-1.827-8.151L40.7 95H29l.168-4.25.168-4.25.392 3.75.393 3.75H40.76l4.12-8.12c2.266-4.466 4.12-8.291 4.12-8.5 0-.209-2.888-.38-6.417-.38-4.197 0-6.591.432-6.921 1.25-.403 1-.52 1-.583 0-.113-1.795-2.753-1.543-3.472.332m50.643 3.124C80.463 83.684 79 85.58 79 85.919c0 .339-1.125 2.272-2.5 4.296-1.375 2.023-2.491 4.265-2.481 4.982.01.717 1.361-.835 3.002-3.447C79.987 87.026 82 85.689 82 88.441c0 2.577 2.009 2.765 4.112.385 1.508-1.707 1.908-1.86 1.503-.576-.304.963-.053 1.75.556 1.75.61 0 1.706-.787 2.437-1.75 1.156-1.523 1.333-1.543 1.36-.152.022 1.108 1.022 1.626 3.26 1.689 3.605.103 5.17-1.429 3.423-3.347-.916-1.006-1.643-.823-3.561.898-1.933 1.734-2.288 1.822-1.794.444.828-2.307-.987-3.276-3.032-1.618-1.175.953-1.432.977-.897.086 1.091-1.816-1.85-1.577-3.387.274-1.922 2.316-2.046 1.347-.491-3.821.778-2.586 1.099-4.678.713-4.648-.386.03-2.165 1.673-3.952 3.651M200.158 80c0 1.375.227 1.938.504 1.25.278-.687.278-1.812 0-2.5-.277-.687-.504-.125-.504 1.25m-58.345 2.683c.721.289 1.584.253 1.916-.079.332-.332-.258-.568-1.312-.525-1.165.048-1.402.285-.604.604m-36.334 3.341c-2.206 2.436-3.197 2.496-3.79.226-.361-1.383-.481-1.302-.573.389-.092 1.7.628 2.278 3.514 2.819 2.085.392 4.062.25 4.644-.332.685-.685.319-.832-1.13-.453-2.549.666-2.807-.467-.493-2.16 1.003-.733 1.252-1.455.634-1.837-.56-.346-1.823.261-2.806 1.348M138 89.034c0 3.709.198 4.008 2.462 3.705 1.354-.182 2.775-.643 3.158-1.026s1.328-.171 2.101.47c1.17.972 1.297.678.758-1.758-1.036-4.689-1.359-5.425-2.384-5.425-.533 0-1.143 1.463-1.356 3.25l-.388 3.25-.801-3.25c-1.168-4.744-3.55-4.218-3.55.784m9.566-3.141c-.223.361-.038 2.22.412 4.132.489 2.078.887 2.671.99 1.475l.173-2 .859 2c.832 1.936.862 1.931.93-.168.191-5.902 2.79-7.157 3.277-1.582l.327 3.75.503-4.184.503-4.184-3.784.052c-2.081.029-3.967.348-4.19.709m10.135-.261c-1.363 1.363-.716 6.425.9 7.045 2.014.773 3.496-1.417 3.158-4.668-.251-2.413-2.629-3.806-4.058-2.377m5.459 3.118c-.12 3.182.217 4.25 1.34 4.25.825 0 1.5-.45 1.5-1s-.421-1-.937-1c-.515 0-1.118-1.463-1.34-3.25-.349-2.817-.424-2.684-.563 1m3.84-.309c0 4.044 1.57 5.418 3.726 3.262 2.116-2.117.922-6.703-1.745-6.703-1.591 0-1.981.678-1.981 3.441m6.111.559c.026 2.475.258 3.985.516 3.356s1.347-.914 2.421-.633c1.67.437 1.952-.012 1.952-3.106 0-1.99-.45-3.617-1-3.617s-1 .761-1 1.691c0 1.475-.188 1.443-1.468-.25-1.36-1.798-1.465-1.608-1.421 2.559M179 89c0 2.889.417 4 1.5 4 .825 0 1.5-.45 1.5-1s-.422-1-.938-1c-1.256 0-.935-4.306.39-5.235.618-.433.33-.741-.702-.75-1.378-.012-1.75.836-1.75 3.985m-20.333-2.333C157.629 87.704 157.883 91 159 91c.55 0 1-1.125 1-2.5 0-2.618-.231-2.936-1.333-1.833M168 88.5c0 1.375.45 2.5 1 2.5s1-1.125 1-2.5-.45-2.5-1-2.5-1 1.125-1 2.5m-72-.441c0 .582.45.781 1 .441s1-.816 1-1.059S97.55 87 97 87s-1 .477-1 1.059m107.543-.128c-.317.512-.193 1.167.274 1.456.467.289.85-.13.85-.931 0-1.686-.316-1.833-1.124-.525m9.79.569c0 .72.6 1.079 1.334.798.733-.282 1.333-.641 1.333-.798 0-.157-.6-.516-1.333-.798-.734-.281-1.334.078-1.334.798m-64.756 8.352c-1.442 2.787-1.42 2.841.974 2.383 2.638-.504 3.22-1.755 1.199-2.576-.941-.381-.879-.769.25-1.568.977-.691 1.073-1.066.276-1.076-.674-.008-1.888 1.268-2.699 2.837m12.173-1.124c-5.024.526-4.813 2.299.25 2.101 2.593-.102 4-.627 4-1.493 0-.735-.113-1.26-.25-1.168-.137.093-1.937.345-4 .56m5.908-.053C165.233 97.1 166.139 98 169 98c1.65 0 3-.477 3-1.059s-.47-.769-1.044-.414c-.574.355-1.628.16-2.342-.432-.714-.593-1.594-.782-1.956-.42M154 98c0 .55.477 1 1.059 1s.781-.45.441-1-.816-1-1.059-1-.441.45-.441 1m37.99 12.25c-5.678 3.865-7.49 7.19-7.49 13.75 0 4.373.529 6.568 2.092 8.677 7.251 9.786 20.739 9.824 27.19.077 4.986-7.535 2.619-17.871-5.2-22.704-4.635-2.864-12.225-2.772-16.592.2m10.01 6.647c0 .533.9 1.254 2 1.603s2 1.054 2 1.567c0 .513.505.933 1.122.933.758 0 .704-.505-.167-1.555-1.779-2.143-4.955-3.776-4.955-2.548m-81.5 1.267c-1.65.62-3.9 1.789-5 2.596-1.921 1.41-1.901 1.44.5.754 9.004-2.57 12.159-2.887 16.771-1.685 11.184 2.916 18.164 11.716 18.206 22.953.012 3.455-.65 7.955-1.472 10-1.351 3.359-1.347 3.525.044 1.718.846-1.1 2.209-4.304 3.028-7.12 1.593-5.478.86-11.739-2.019-17.232-1.84-3.512-7.23-8.506-11.513-10.668-4.214-2.126-14.457-2.853-18.545-1.316m74.09.147c-1.195.874-1.91 2.958-2.145 6.25l-.352 4.939.792-4.41c.482-2.682 1.682-5.131 3.064-6.25 2.574-2.084 1.394-2.543-1.359-.529M.355 127.5c-.003 4.95.166 7.101.376 4.78.209-2.321.212-6.371.005-9-.206-2.629-.378-.73-.381 4.22m195.202-6.277c-.856 1.222-1.557 2.572-1.557 3 0 .427 2.7.777 6 .777 6.18 0 6.848-.547 4.965-4.066-1.506-2.814-7.361-2.634-9.408.289m1.443.573c0 .437 1.575.901 3.5 1.031 1.925.13 3.5-.228 3.5-.796 0-.567-1.575-1.031-3.5-1.031s-3.5.358-3.5.796m-74.862 1.352c-3.155.908-3.248 1.054-1.5 2.378 1.505 1.14 1.575 1.454.362 1.64-.825.126 3.437.478 9.472.782l10.972.552 2.261 4c2.35 4.156 3.03 9.928 1.295 11-1.301.804-1.299 7.197.002 8.001 1.483.917 2.998-3.937 2.998-9.606 0-13.407-12.622-22.557-25.862-18.747m85.289 2.401c-.04 1.843.297 3.121.75 2.842 1.029-.637 1.086-5.112.073-5.733-.412-.252-.783 1.048-.823 2.891M53.158 124c-1.096.833-1.314 4-.275 4 .534 0 1.176-.787 1.428-1.75.398-1.523.472-1.535.573-.094.08 1.145.734 1.495 2.116 1.134 1.1-.288 2-.947 2-1.466 0-.518-.45-.664-1-.324s-1 .179-1-.358c0-.536.563-1.181 1.25-1.432.688-.251-.029-.401-1.592-.333-1.563.067-3.138.348-3.5.623m-4.158.82c-2.147.973-2.286 3.077-.193 2.92.984-.075 1.764-.93 1.764-1.937 0-.991-.016-1.771-.035-1.733-.02.039-.711.376-1.536.75m-7.889 2.973c-.782 1.46-.556 1.812 1.215 1.898 1.196.058 1.637-.103.98-.358-.656-.254-.946-1.108-.643-1.898.788-2.052-.41-1.776-1.552.358m21.556-.126c-1.31 1.309-.636 3.332 1.083 3.254 1.045-.047 1.247-.282.5-.583-.687-.278-1.25-.944-1.25-1.48 0-.537.45-.698 1-.358.55.34 1 .141 1-.441 0-1.187-1.317-1.409-2.333-.392m-4.917.995c.688.278 1.25.933 1.25 1.457 0 .544-.907.466-2.121-.184-1.242-.664-1.861-.714-1.493-.12.344.558.061 1.242-.63 1.521-.691.278-.28.542.912.585 3.731.136 5.55-.954 4.235-2.538-.631-.761-1.655-1.347-2.275-1.304-.709.05-.663.266.122.583m137.892.847c1.19 3.103 9.358 3.036 9.358-.076 0-1.052-1.323-1.433-4.969-1.433-4.018 0-4.858.289-4.389 1.509m-145.003.989c-.893 2.327-.832 2.502.861 2.502 1.683 0 1.873-.863.624-2.834-.675-1.064-.975-.997-1.485.332m141.857.509c-.343.554.1 1.285.984 1.624 1.914.734 2.981-.075 2.061-1.564-.83-1.344-2.235-1.371-3.045-.06m13.171-.34c-1.151 1.15-.729 2.333.833 2.333.825 0 1.5-.675 1.5-1.5 0-1.562-1.183-1.984-2.333-.833M127.5 132c-1.61.692-1.673.873-.323.93.922.038 1.882.857 2.134 1.82.281 1.077.502.692.573-1 .064-1.512.003-2.718-.134-2.68-.137.039-1.15.457-2.25.93m6.275-.442c-1.002 1.002.424 4.442 1.842 4.442 1.503 0 1.72-.958.776-3.418-.622-1.621-1.628-2.014-2.618-1.024m5.257.001c-.018.582.629 1.932 1.436 3 .808 1.067 1.483 1.465 1.5.882.018-.582-.629-1.932-1.436-3-.808-1.067-1.483-1.465-1.5-.882M134.5 140c.34.55 1.041 1 1.559 1s.941-.45.941-1-.702-1-1.559-1-1.281.45-.941 1m3.5 4c-1.282.828-1.246.972.25.985.963.008 1.75-.435 1.75-.985 0-1.22-.113-1.22-2 0m-68.359 10.898c-8.986 5.924-8.836 19.847.265 24.553 3.835 1.983 10.353 1.983 14.188 0 9.395-4.858 9.078-20.295-.511-24.845-4.519-2.144-10.435-2.02-13.942.292m2.438 3.367c-1.332.679-2.847 2.519-3.368 4.089-1.927 5.807 5.732 10.971 10.787 7.272 1.1-.804 1.673-1.788 1.275-2.187-.399-.398-1.383-.177-2.188.491-4.575 3.796-11.081-2.515-7.112-6.9 1.01-1.116 2.667-2.03 3.682-2.03 1.015 0 1.845-.45 1.845-1 0-1.344-1.976-1.238-4.921.265m.496 5.59c1.059 1.02 2.092 1.418 2.297.884.384-1.002-1.667-2.697-3.297-2.724-.509-.008-.059.82 1 1.84m94.238.828c.721.289 1.584.253 1.916-.079.332-.332-.258-.568-1.312-.525-1.165.048-1.402.285-.604.604m7.345 2.317c0 1.375.227 1.938.504 1.25.278-.687.278-1.812 0-2.5-.277-.687-.504-.125-.504 1.25m-10.156-.179c-.001.177.656.979 1.459 1.783 1.206 1.206 1.818 1.239 3.5.188 3.021-1.886 2.483-2.822-1.459-2.541-1.924.137-3.499.394-3.5.57m13.541.11c-.665 1.076 1.292 2.567 2.19 1.669.33-.33.049-.6-.625-.6s-.948-.45-.608-1c.34-.55.393-1 .118-1s-.759.419-1.075.931m5.668.67c-.71.769-.849 1.399-.309 1.399 1.038 0 2.541-1.902 1.948-2.466-.192-.183-.93.297-1.639 1.067m2.868-.018c.048 1.165.285 1.402.604.605.289-.722.253-1.585-.079-1.917-.332-.332-.568.258-.525 1.312m5-.25c-.09 2.098 2.098 1.775 2.685-.395.321-1.189.223-1.202-.567-.075-.806 1.151-1.039 1.151-1.497 0-.365-.917-.568-.763-.621.47m3.936.417c.01 1.079.297 1.328.75.65.404-.605 1.41-1.357 2.235-1.671 1.002-.382.753-.597-.75-.65-1.512-.053-2.245.495-2.235 1.671m7.064-.167c.048 1.165.285 1.402.604.605.289-.722.253-1.585-.079-1.917-.332-.332-.568.258-.525 1.312m2.464-.652c-.665 1.076 1.292 2.567 2.19 1.669.33-.33.049-.6-.625-.6s-.948-.45-.608-1c.34-.55.393-1 .118-1s-.759.419-1.075.931m4.151-.292c-.933.934.194 2.361 1.865 2.361.793 0 1.405-.787 1.362-1.75-.047-1.045-.282-1.247-.583-.5-.278.688-.944 1.25-1.48 1.25-.537 0-.698-.45-.358-1 .691-1.118.179-1.346-.806-.361m5.639.905c0 .801.375 1.456.834 1.456.458 0 .833-.423.833-.941s-.375-1.173-.833-1.456c-.459-.283-.834.14-.834.941m-164.77 35.557c6.221 6.57 19.337 16.17 28.437 20.815 11.642 5.942 14.226 6.837 13.382 4.637-1.071-2.792 1.537-4.553 6.74-4.553 4.687 0 4.878-.111 4.878-2.828 0-2.63-.598-3.055-8.545-6.074-4.7-1.785-12.532-5.913-17.405-9.172L68.191 200H46.626l2.937 3.101M182 204.633c-6.924 4.912-17.769 10.356-24.75 12.424-3.708 1.099-4.25 1.622-4.25 4.101 0 2.734.185 2.842 4.878 2.842 5.203 0 7.811 1.761 6.74 4.553-.788 2.055 1.55 1.345 10.882-3.3a114.488 114.488 0 0 0 27-18.668l7-6.492-10.5-.036-10.5-.035-6.5 4.611m-80 28.643c10.949 3.002 41.051 3.002 52 0l7.5-2.056h-67l7.5 2.056" fill="#1976D2" fill-rule="evenodd"/><path fill-opacity=".968" d="M20.455 55.455 18 57.909v136.245l2.975 2.975 2.975 2.975 11.775-.107c6.476-.059 24.262-.083 39.525-.052L103 200v25h-5.57c-5.203 0-5.548.148-5.25 2.25l.32 2.25h71l.32-2.25c.298-2.102-.047-2.25-5.25-2.25H153v-25h79.626l2.687-2.805 2.687-2.804V57.909l-2.455-2.454L233.091 53H22.909l-2.454 2.455m14.795 7.339-7.25.294V189h200V63l-6.75-.051c-34.373-.261-180.381-.383-186-.155m159.25 5.938c1.1.275 2.331 1.01 2.735 1.634.466.72.74.495.75-.616.011-1.274-.733-1.718-2.735-1.634-2.108.089-2.283.233-.75.616m5.859 5.768.972 6.5 4.084-.168 4.085-.168-3.707-.39-3.707-.39-.672-5.942c-.37-3.268-.977-5.942-1.349-5.942-.373 0-.24 2.925.294 6.5m-2.28 1.083c.048 1.165.285 1.402.604.605.289-.722.253-1.585-.079-1.917-.332-.332-.568.258-.525 1.312m17.706 3.407c.242 1.644.858 2.73 1.371 2.414.512-.317 1.547-.066 2.299.558.865.719 1.589.776 1.972.156a1.151 1.151 0 0 0-.367-1.581c-.535-.331-.742-1.202-.46-1.938.307-.799-.413-1.584-1.793-1.954-3.445-.922-3.496-.883-3.022 2.345m-16.706 2.593c.048 1.165.285 1.402.604.605.289-.722.253-1.585-.079-1.917-.332-.332-.568.258-.525 1.312m4.171 2.133c1.512.229 3.988.229 5.5 0s.275-.416-2.75-.416-4.262.187-2.75.416m-65.134 5.034c.064 2.063.323 2.957.576 1.988.253-.969.875-1.505 1.384-1.191.508.314.924-.581.924-1.988 0-1.608-.557-2.559-1.5-2.559-1.087 0-1.468 1.032-1.384 3.75m5.954-3.743c-.038.278-.461 1.869-.939 3.535-.746 2.602-.605 3.029 1 3.029 1.045 0 1.838-.677 1.799-1.535-.07-1.524-1.725-6-1.86-5.029m3.93 2.462c0 1.841.402 2.314 1.584 1.86 1.277-.49 1.325-.774.25-1.468-1.092-.705-1.062-1.04.166-1.846 1.284-.843 1.248-.987-.25-1-1.198-.01-1.75.763-1.75 2.454m5.81 1.031c.225 1.925.535 3.5.69 3.5.155 0 .465-1.575.69-3.5.248-2.124-.024-3.5-.69-3.5-.666 0-.938 1.376-.69 3.5m3.857-2.833c-.942.941-.83 5.114.152 5.721.451.279.614-.892.363-2.6-.376-2.563-.169-2.997 1.181-2.479.9.346 1.637.192 1.637-.34 0-1.1-2.325-1.311-3.333-.302m5.585 2.833c.011 2.2.216 2.982.455 1.738.239-1.244.23-3.044-.02-4s-.446.062-.435 2.262m4.415-2.833c-.96.959-.824 6.333.16 6.333.455 0 .618-1.422.363-3.16-.384-2.613-.181-3.051 1.173-2.531.9.346 1.637.192 1.637-.34 0-1.1-2.325-1.311-3.333-.302m5.528 1.833c.02 1.65.244 2.204.498 1.231.254-.973.237-2.323-.037-3-.274-.677-.481.119-.461 1.769m2.921-1.332c-.064.918-.375 2.493-.692 3.5-.545 1.736-.515 1.739.568.051.628-.98.939-2.555.691-3.5-.406-1.549-.462-1.554-.567-.051m2.954 2.582c.055 2.922.248 3.308.875 1.75.443-1.1.578-2.388.302-2.862-.277-.474.117-1.254.875-1.734 1.09-.691 1.012-.877-.372-.889-1.371-.012-1.735.798-1.68 3.735m22.156 1.829c.95.991 1.942 1.587 2.205 1.324.263-.263-.514-1.074-1.726-1.803-2.107-1.265-2.128-1.243-.479.479" fill="#1976D2" fill-rule="evenodd"/></svg>